<svg id="visual" viewBox="0 0 900 600" width="900" height="600" xmlns="http://www.w3.org/2000/svg" xmlns:xlink="http://www.w3.org/1999/xlink" version="1.1"><rect x="0" y="0" width="900" height="600" fill="#d2d5db"></rect><path d="M0 355L129 421L257 365L386 422L514 409L643 438L771 373L900 377L900 601L771 601L643 601L514 601L386 601L257 601L129 601L0 601Z" fill="#0066ff"></path><path d="M0 431L129 473L257 405L386 457L514 480L643 443L771 441L900 419L900 601L771 601L643 601L514 601L386 601L257 601L129 601L0 601Z" fill="#385aff"></path><path d="M0 463L129 467L257 454L386 444L514 501L643 495L771 484L900 480L900 601L771 601L643 601L514 601L386 601L257 601L129 601L0 601Z" fill="#564cff"></path><path d="M0 541L129 494L257 538L386 525L514 506L643 494L771 529L900 528L900 601L771 601L643 601L514 601L386 601L257 601L129 601L0 601Z" fill="#7137ff"></path><path d="M0 529L129 557L257 528L386 534L514 529L643 572L771 551L900 559L900 601L771 601L643 601L514 601L386 601L257 601L129 601L0 601Z" fill="#8b00ff"></path></svg>