<svg id="visual" viewBox="0 0 900 600" width="900" height="600" xmlns="http://www.w3.org/2000/svg" xmlns:xlink="http://www.w3.org/1999/xlink" version="1.1"><rect x="0" y="0" width="900" height="600" fill="#001122"></rect><path d="M0 369L21.5 371C43 373 86 377 128.8 376.7C171.7 376.3 214.3 371.7 257.2 378C300 384.3 343 401.7 385.8 412.7C428.7 423.7 471.3 428.3 514.2 423.5C557 418.7 600 404.3 642.8 401.7C685.7 399 728.3 408 771.2 411.8C814 415.7 857 414.3 878.5 413.7L900 413L900 601L878.5 601C857 601 814 601 771.2 601C728.3 601 685.7 601 642.8 601C600 601 557 601 514.2 601C471.3 601 428.7 601 385.8 601C343 601 300 601 257.2 601C214.3 601 171.7 601 128.8 601C86 601 43 601 21.5 601L0 601Z" fill="#3d0091"></path><path d="M0 453L21.5 454.3C43 455.7 86 458.3 128.8 462.7C171.7 467 214.3 473 257.2 466C300 459 343 439 385.8 426.5C428.7 414 471.3 409 514.2 409.2C557 409.3 600 414.7 642.8 426C685.7 437.3 728.3 454.7 771.2 452.3C814 450 857 428 878.5 417L900 406L900 601L878.5 601C857 601 814 601 771.2 601C728.3 601 685.7 601 642.8 601C600 601 557 601 514.2 601C471.3 601 428.7 601 385.8 601C343 601 300 601 257.2 601C214.3 601 171.7 601 128.8 601C86 601 43 601 21.5 601L0 601Z" fill="#3d22ac"></path><path d="M0 506L21.5 503.3C43 500.7 86 495.3 128.8 491.7C171.7 488 214.3 486 257.2 479.7C300 473.3 343 462.7 385.8 461.8C428.7 461 471.3 470 514.2 469.2C557 468.3 600 457.7 642.8 452.7C685.7 447.7 728.3 448.3 771.2 455.5C814 462.7 857 476.3 878.5 483.2L900 490L900 601L878.5 601C857 601 814 601 771.2 601C728.3 601 685.7 601 642.8 601C600 601 557 601 514.2 601C471.3 601 428.7 601 385.8 601C343 601 300 601 257.2 601C214.3 601 171.7 601 128.8 601C86 601 43 601 21.5 601L0 601Z" fill="#393ac8"></path><path d="M0 536L21.5 529C43 522 86 508 128.8 505C171.7 502 214.3 510 257.2 512.2C300 514.3 343 510.7 385.8 506.8C428.7 503 471.3 499 514.2 497.7C557 496.3 600 497.7 642.8 501.7C685.7 505.7 728.3 512.3 771.2 514.5C814 516.7 857 514.3 878.5 513.2L900 512L900 601L878.5 601C857 601 814 601 771.2 601C728.3 601 685.7 601 642.8 601C600 601 557 601 514.2 601C471.3 601 428.7 601 385.8 601C343 601 300 601 257.2 601C214.3 601 171.7 601 128.8 601C86 601 43 601 21.5 601L0 601Z" fill="#2c50e3"></path><path d="M0 527L21.5 531.7C43 536.3 86 545.7 128.8 553.5C171.7 561.3 214.3 567.7 257.2 568.3C300 569 343 564 385.8 557.8C428.7 551.7 471.3 544.3 514.2 539.5C557 534.7 600 532.3 642.8 532.7C685.7 533 728.3 536 771.2 541.7C814 547.3 857 555.7 878.5 559.8L900 564L900 601L878.5 601C857 601 814 601 771.2 601C728.3 601 685.7 601 642.8 601C600 601 557 601 514.2 601C471.3 601 428.7 601 385.8 601C343 601 300 601 257.2 601C214.3 601 171.7 601 128.8 601C86 601 43 601 21.5 601L0 601Z" fill="#0066ff"></path></svg>